<?xml version="1.0" standalone="no"?>
<!DOCTYPE svg PUBLIC "-//W3C//DTD SVG 20010904//EN"
 "http://www.w3.org/TR/2001/REC-SVG-20010904/DTD/svg10.dtd">
<svg version="1.0" xmlns="http://www.w3.org/2000/svg"
 width="659.000000pt" height="659.000000pt" viewBox="0 0 659.000000 659.000000"
 preserveAspectRatio="xMidYMid meet">
<metadata>
Created by potrace 1.11, written by Peter Selinger 2001-2013
</metadata>
<g transform="translate(0.000000,659.000000) scale(0.100000,-0.100000)"
fill="#000000" stroke="none">
<path d="M2998 5815 c-2 -1 -34 -5 -73 -9 -574 -54 -1154 -328 -1574 -746 -31
-30 -60 -53 -66 -52 -5 2 -7 0 -3 -3 4 -4 -23 -42 -60 -84 -348 -391 -570
-890 -636 -1434 -14 -111 -15 -512 -2 -602 4 -22 8 -56 11 -75 3 -19 12 -70
20 -113 8 -44 12 -83 9 -88 -3 -5 -1 -9 4 -9 4 0 16 -35 26 -77 24 -103 88
-284 143 -408 154 -344 395 -669 677 -912 420 -362 895 -569 1451 -633 111
-13 389 -16 505 -6 313 29 623 113 895 242 43 20 84 37 91 37 7 0 11 3 9 7 -2
4 16 16 41 28 25 12 87 49 140 82 548 345 953 887 1133 1515 25 89 59 248 67
316 3 30 8 57 10 61 15 25 22 373 11 544 -22 354 -160 804 -333 1093 -18 30
-31 58 -28 63 3 4 1 8 -5 8 -5 0 -23 21 -39 48 -24 39 -109 159 -139 197 -102
130 -302 334 -418 426 -420 335 -888 526 -1415 579 -92 9 -443 13 -452 5z
m988 -929 c139 -7 372 -39 454 -61 14 -4 35 -7 48 -7 12 0 22 -5 22 -10 0 -6
6 -8 14 -5 7 3 19 0 26 -6 10 -9 11 -9 5 3 -6 11 -3 10 12 -3 12 -11 27 -15
38 -11 14 6 16 4 10 -7 -7 -11 -5 -11 10 1 11 9 16 10 11 3 -4 -7 -2 -13 3
-13 32 0 174 -469 206 -680 3 -19 14 -91 25 -160 43 -283 46 -678 6 -967 -3
-21 -39 -41 -63 -37 -13 3 -23 0 -23 -5 0 -10 51 -7 69 3 14 9 14 9 -10 -124
-43 -241 -123 -513 -215 -736 -54 -132 -196 -416 -211 -421 -7 -3 -13 -9 -13
-14 0 -9 -51 -64 -60 -64 -3 0 -19 -12 -35 -27 -16 -16 -33 -28 -37 -28 -5 0
-8 -8 -8 -17 1 -16 2 -16 16 2 8 11 20 19 25 17 6 -1 8 2 4 8 -3 5 -1 10 6 10
6 0 28 17 47 38 26 27 32 30 22 12 -40 -75 -254 -379 -268 -381 -24 -2 -45 -8
-50 -14 -4 -4 0 -5 8 -3 22 4 21 -13 -1 -41 -18 -23 -19 -23 -106 -11 -49 7
-94 13 -100 13 -7 0 -13 4 -13 9 0 4 3 8 8 8 17 0 63 50 56 61 -5 8 -3 9 7 3
8 -4 19 -9 25 -10 6 -1 21 -5 33 -9 12 -4 21 -2 21 4 0 6 -11 11 -25 11 -22 0
-24 2 -13 19 7 11 16 17 22 14 5 -4 6 -1 1 7 -6 10 -12 8 -24 -7 -13 -16 -66
-25 -78 -13 -2 1 -7 4 -13 5 -5 1 -11 3 -12 5 -2 1 -14 3 -26 4 -13 2 -28 9
-33 17 -6 9 -9 10 -9 2 0 -15 37 -36 50 -28 5 3 13 -3 19 -12 6 -10 11 -12 11
-5 0 10 4 10 20 0 20 -13 19 -13 -3 -34 -52 -48 -70 -48 -272 1 -11 3 -35 8
-52 11 -18 3 -33 8 -33 11 0 2 12 20 27 39 20 27 23 38 14 47 -10 9 -11 8 -5
-7 6 -15 4 -17 -6 -11 -8 5 -11 4 -7 -2 4 -6 0 -14 -9 -17 -8 -3 -13 -10 -10
-15 3 -5 -1 -14 -9 -21 -11 -9 -33 -6 -102 15 -253 77 -393 133 -618 247 -201
102 -346 193 -338 214 3 7 9 12 14 9 4 -3 13 4 19 15 6 11 16 17 22 14 7 -4 8
-3 4 4 -4 8 3 16 18 22 14 5 26 14 26 20 0 5 7 10 15 10 8 0 15 -5 15 -11 0
-5 5 -7 10 -4 6 3 10 1 10 -6 0 -7 3 -10 6 -6 4 3 15 -4 25 -16 10 -12 18 -18
19 -13 0 5 9 -1 20 -14 11 -13 20 -19 20 -15 0 4 8 1 18 -8 10 -10 22 -14 25
-10 4 3 7 1 7 -5 0 -7 3 -11 8 -11 21 4 32 -3 32 -18 0 -9 3 -13 7 -10 3 4 12
2 20 -4 7 -6 13 -7 13 -2 0 10 -87 68 -102 68 -5 0 -13 7 -18 15 -5 8 -10 11
-10 5 0 -5 -7 -2 -15 9 -7 10 -18 15 -24 12 -5 -4 -15 2 -20 12 -6 11 -24 25
-40 32 -17 7 -28 17 -24 23 4 6 1 7 -7 2 -7 -4 -15 -4 -19 1 -14 20 -101 85
-101 76 0 -5 12 -17 26 -27 66 -43 98 -95 59 -95 -7 0 -32 -18 -56 -41 l-42
-40 -61 42 c-362 251 -696 590 -939 955 -48 71 -87 135 -87 141 0 6 -4 13 -9
15 -18 6 -140 240 -134 256 4 9 2 13 -4 9 -14 -9 -98 177 -88 194 5 7 4 10 -3
5 -6 -3 -17 13 -28 41 -9 27 -23 63 -30 80 -9 24 -10 32 -1 30 6 -1 11 3 12 8
0 9 29 46 63 81 7 8 10 14 5 14 -4 0 5 11 20 25 15 14 27 30 27 36 0 6 5 7 12
3 7 -5 8 -3 4 5 -5 8 0 14 14 18 16 4 18 8 9 14 -9 5 -23 -5 -42 -32 -16 -21
-33 -39 -37 -39 -5 0 -11 -9 -15 -20 -7 -22 -81 -108 -87 -100 -2 3 -14 34
-25 70 l-22 64 26 36 c35 46 373 383 379 377 2 -2 21 12 42 32 128 123 459
339 707 461 195 96 447 195 571 225 11 3 59 16 109 30 210 58 484 101 710 112
72 3 131 6 132 7 3 3 169 -2 299 -8z"/>
<path d="M3740 4682 c0 -7 -4 -11 -9 -7 -5 3 -12 2 -15 -3 -3 -5 17 -8 44 -8
33 -1 51 4 54 13 4 9 2 11 -7 6 -18 -11 -51 -10 -59 2 -5 6 -8 5 -8 -3z"/>
<path d="M3927 4674 c2 -6 16 -9 31 -7 27 4 68 6 107 4 11 -1 50 0 88 2 43 2
67 0 67 -7 0 -6 4 -5 9 2 4 8 12 14 16 14 4 0 12 -6 17 -14 8 -10 9 -10 5 2
-3 13 -31 15 -174 15 -120 0 -169 -3 -166 -11z"/>
<path d="M4287 4675 c3 -8 9 -12 14 -9 12 7 11 11 -5 17 -10 4 -13 1 -9 -8z"/>
<path d="M4325 4678 c5 -14 135 -21 135 -8 0 3 -24 6 -52 5 -29 0 -61 3 -70 7
-12 6 -16 5 -13 -4z"/>
<path d="M3690 4673 c0 -6 -22 -10 -55 -8 -31 1 -58 -2 -61 -6 -2 -4 -13 -6
-24 -4 -11 2 -20 0 -20 -6 0 -9 27 -8 45 2 6 3 34 5 63 4 48 -2 73 8 58 22 -3
4 -6 2 -6 -4z"/>
<path d="M3826 4672 c-2 -4 4 -8 15 -8 10 0 19 4 19 8 0 4 -6 8 -14 8 -8 0
-17 -4 -20 -8z"/>
<path d="M3870 4671 c0 -10 26 -9 36 2 4 4 -2 7 -14 7 -12 0 -22 -4 -22 -9z"/>
<path d="M4470 4667 c0 -6 3 -7 7 -4 3 4 12 2 20 -4 10 -9 13 -8 13 0 0 7 5 9
13 4 15 -9 106 -12 112 -4 2 4 -21 6 -51 6 -30 -1 -54 2 -54 5 0 4 -13 7 -30
7 -16 0 -30 -5 -30 -10z"/>
<path d="M3487 4654 c-3 -3 -22 -6 -41 -6 -20 0 -34 -4 -31 -8 3 -5 15 -7 28
-4 12 2 34 5 49 6 15 1 24 6 22 10 -6 9 -18 10 -27 2z"/>
<path d="M4647 4653 c-3 -5 6 -9 19 -9 13 -1 21 2 18 7 -6 11 -31 12 -37 2z"/>
<path d="M3333 4628 c-2 -5 9 -7 26 -6 17 1 31 6 31 10 0 10 -50 6 -57 -4z"/>
<path d="M3265 4620 c-4 -6 -11 -7 -17 -4 -7 4 -8 2 -4 -4 4 -7 15 -8 29 -3
12 5 25 8 29 7 3 0 9 1 12 4 3 3 -6 7 -19 8 -13 1 -27 -3 -30 -8z"/>
<path d="M3190 4607 c0 -4 -4 -6 -9 -2 -5 3 -12 1 -16 -4 -3 -6 4 -8 17 -5 13
3 29 6 36 6 6 1 12 5 12 9 0 4 -9 7 -20 6 -11 -1 -20 -5 -20 -10z"/>
<path d="M3095 4590 c-4 -7 3 -10 19 -8 35 5 45 18 13 18 -14 0 -29 -5 -32
-10z"/>
<path d="M3056 4578 c3 -4 9 -8 15 -8 5 0 9 4 9 8 0 5 -7 9 -15 9 -8 0 -12 -4
-9 -9z"/>
<path d="M2984 4568 c-3 -4 -14 -8 -24 -8 -10 0 -22 -5 -25 -10 -7 -12 47 -2
55 10 3 4 13 6 23 4 9 -1 17 2 17 6 0 11 -40 9 -46 -2z"/>
<path d="M2876 4543 c-12 -13 -6 -25 7 -14 8 6 16 8 19 5 3 -3 8 -1 11 3 6 10
-28 15 -37 6z"/>
<path d="M2830 4530 c-8 -5 -17 -7 -21 -4 -10 5 -23 -15 -15 -23 3 -3 11 -1
18 4 7 6 22 13 33 15 11 2 15 6 10 10 -6 4 -17 3 -25 -2z"/>
<path d="M2766 4511 c-4 -6 -13 -8 -20 -5 -8 3 -17 0 -21 -5 -3 -6 -11 -9 -16
-5 -5 3 -16 0 -24 -6 -8 -7 -15 -9 -15 -5 0 4 -7 2 -15 -5 -8 -7 -15 -9 -15
-4 0 4 -5 3 -11 -3 -6 -6 -19 -9 -28 -6 -11 3 -11 1 3 -7 14 -10 20 -10 26 0
4 6 10 11 14 11 3 -1 7 -1 9 0 3 1 35 9 50 12 6 1 18 6 25 10 6 5 16 6 20 3
10 -6 38 11 30 19 -3 4 -9 2 -12 -4z"/>
<path d="M2546 4443 c-9 -23 -7 -26 10 -9 8 9 21 13 27 9 7 -3 8 -2 4 2 -13
15 -35 14 -41 -2z"/>
<path d="M2510 4429 c0 -5 5 -7 10 -4 6 3 10 8 10 11 0 2 -4 4 -10 4 -5 0 -10
-5 -10 -11z"/>
<path d="M2460 4416 c-5 -5 -10 -7 -10 -3 0 4 -13 1 -30 -8 -16 -9 -30 -13
-30 -10 0 3 -10 -1 -23 -10 -13 -8 -27 -12 -30 -8 -4 3 -7 1 -7 -6 0 -14 43
-5 48 10 2 5 8 7 12 4 5 -3 17 -1 27 4 29 15 57 24 71 22 6 -1 12 2 12 7 0 12
-27 11 -40 -2z"/>
<path d="M2159 4398 c-10 -4 -19 -5 -19 -1 0 3 -9 -2 -20 -12 -11 -10 -20 -24
-20 -31 0 -7 -5 -16 -12 -20 -6 -4 -8 -3 -5 3 3 5 0 10 -7 10 -8 0 -11 -9 -8
-24 4 -22 22 -33 22 -14 0 6 9 9 20 8 11 -1 20 -3 20 -4 0 -2 -9 -12 -20 -23
-11 -11 -20 -15 -20 -10 0 6 -5 10 -11 10 -5 0 -7 -5 -4 -11 4 -6 -2 -13 -14
-16 -12 -3 -21 -9 -21 -13 0 -5 -8 -7 -17 -5 -10 1 -27 -5 -38 -15 -11 -10
-31 -21 -45 -25 -14 -4 -33 -14 -42 -23 -10 -8 -18 -12 -18 -8 0 4 -12 -2 -26
-13 -15 -12 -32 -21 -39 -21 -6 0 -12 -6 -12 -14 0 -10 10 -7 34 11 18 14 33
22 33 18 0 -5 8 -1 18 8 10 10 22 14 27 10 4 -5 4 -2 0 6 -6 11 -4 13 8 8 10
-3 17 -3 17 2 0 5 11 12 25 15 14 4 25 11 25 16 0 5 9 7 20 5 11 -2 22 0 25 6
4 5 24 18 47 29 33 16 39 16 34 4 -4 -10 -1 -14 6 -11 7 2 14 10 14 18 1 8 2
18 3 23 0 5 8 3 16 -4 12 -10 15 -10 15 0 0 7 6 10 14 7 8 -3 19 0 25 7 17 20
-7 33 -55 31 -33 -1 -41 2 -39 14 1 9 8 15 13 14 7 -2 9 5 6 15 -4 11 1 8 15
-8 12 -14 20 -19 19 -10 -2 8 -7 19 -13 23 -6 5 -4 7 5 4 8 -2 14 -9 13 -15
-2 -6 6 -10 17 -9 25 2 25 6 3 24 -16 13 -15 13 6 3 13 -7 21 -8 18 -3 -4 5 0
10 7 10 8 0 12 -7 9 -15 -5 -11 -1 -13 15 -7 14 4 22 2 22 -5 0 -6 5 -8 12 -4
6 4 8 3 4 -4 -3 -6 -18 -8 -33 -6 -23 4 -25 3 -14 -10 15 -17 50 -17 69 1 14
13 17 27 4 19 -5 -3 -19 4 -30 15 -12 11 -22 17 -22 13 0 -3 -6 -2 -12 4 -14
11 -58 11 -89 0z"/>
<path d="M2215 4360 c-4 -6 -10 -8 -15 -5 -5 3 -12 0 -16 -7 -4 -7 -3 -10 1
-5 5 4 21 -4 36 -19 15 -14 30 -26 33 -25 3 1 7 0 9 0 1 -1 13 -3 27 -5 14 -2
41 -6 60 -10 19 -3 43 -6 53 -7 9 -1 17 -4 17 -8 0 -3 16 -5 36 -4 19 1 37 -2
40 -7 3 -4 12 -8 21 -8 16 0 9 14 -8 16 -5 1 -10 3 -11 4 -2 1 -16 4 -33 6
-16 2 -43 6 -60 9 -16 3 -42 7 -56 9 -14 2 -36 9 -50 17 -13 7 -28 12 -33 11
-13 -4 -46 29 -40 39 3 5 3 9 0 9 -3 0 -8 -5 -11 -10z"/>
<path d="M1880 4349 c0 -5 5 -7 10 -4 6 3 10 8 10 11 0 2 -4 4 -10 4 -5 0 -10
-5 -10 -11z"/>
<path d="M1910 4352 c0 -5 7 -9 15 -9 8 0 15 4 15 9 0 4 -7 8 -15 8 -8 0 -15
-4 -15 -8z"/>
<path d="M1971 4348 c-1 -20 14 -24 25 -6 4 6 3 8 -4 4 -5 -3 -13 0 -15 6 -3
8 -6 6 -6 -4z"/>
<path d="M2124 4352 c4 -3 14 -7 22 -8 9 -1 13 0 10 4 -4 3 -14 7 -22 8 -9 1
-13 0 -10 -4z"/>
<path d="M2021 4334 c6 -7 16 -11 21 -8 11 7 3 17 -18 20 -12 2 -13 -1 -3 -12z"/>
<path d="M2210 4295 c-7 -8 -16 -12 -21 -9 -5 3 -12 -2 -15 -11 -6 -14 -8 -14
-19 1 -10 15 -12 14 -10 -7 1 -13 5 -23 8 -21 4 1 10 3 15 3 4 1 12 2 17 4 6
1 16 3 23 3 6 1 12 7 12 13 0 5 -6 7 -12 3 -7 -4 -9 -3 -5 1 15 17 36 14 29
-3 -5 -15 -3 -14 12 1 10 10 16 21 12 24 -3 4 -6 3 -6 -2 0 -4 -6 -2 -14 4
-10 9 -16 8 -26 -4z"/>
<path d="M2540 4253 c0 -8 8 -10 65 -15 14 -1 25 -5 25 -9 0 -4 8 -8 18 -8 17
0 57 -8 57 -11 0 -1 11 -3 25 -4 14 0 31 -5 38 -9 6 -5 12 -5 12 -1 0 3 6 2
13 -4 7 -6 22 -10 32 -8 11 2 23 -1 26 -7 4 -6 14 -5 25 3 14 8 15 10 2 6 -9
-2 -19 -2 -23 2 -3 3 -18 8 -33 9 -15 2 -33 4 -39 5 -7 1 -13 5 -13 10 0 5 -6
8 -12 7 -28 -3 -39 1 -32 14 6 9 5 9 -8 0 -8 -7 -18 -10 -22 -6 -4 4 -19 8
-34 9 -15 1 -27 2 -27 4 0 1 -11 3 -25 5 -14 2 -35 7 -47 10 -13 4 -23 3 -23
-2z"/>
<path d="M2894 4168 c-3 -4 4 -8 15 -8 12 0 21 4 21 8 0 5 -7 9 -15 9 -9 0
-18 -4 -21 -9z"/>
<path d="M2945 4160 c7 -11 45 -20 45 -10 0 4 -11 10 -25 12 -13 3 -22 2 -20
-2z"/>
<path d="M3002 4152 c2 -8 7 -13 11 -13 4 0 24 -6 46 -14 22 -7 42 -11 45 -8
3 4 6 2 6 -3 0 -5 8 -10 18 -11 9 -1 22 -3 27 -5 6 -2 10 1 10 7 0 5 -7 10
-15 11 -21 2 -60 11 -97 23 -18 5 -33 7 -33 3 0 -4 -5 0 -11 8 -7 10 -9 11 -7
2z"/>
<path d="M1749 4101 c-20 -16 -22 -22 -11 -33 7 -7 13 -8 12 -3 -5 24 1 35 20
35 11 0 20 5 20 10 0 15 -15 12 -41 -9z"/>
<path d="M3190 4092 c0 -4 15 -12 33 -18 26 -8 34 -7 34 3 0 6 -4 10 -8 7 -4
-2 -19 0 -33 6 -14 5 -26 6 -26 2z"/>
<path d="M1651 4035 c-36 -25 -60 -45 -54 -45 7 0 32 15 56 34 25 19 47 32 50
30 2 -3 7 2 10 11 4 8 5 15 4 15 -1 0 -31 -20 -66 -45z"/>
<path d="M3270 4069 c0 -5 5 -10 10 -10 6 -1 13 -2 18 -4 4 -1 21 -5 37 -10
17 -4 35 -10 40 -14 6 -3 18 -6 28 -7 9 -1 19 -3 22 -4 3 -1 8 -3 13 -4 4 -1
13 -5 20 -10 8 -5 18 -4 23 1 6 6 5 10 -3 11 -15 1 -52 9 -55 12 -2 2 -7 4
-13 5 -5 1 -11 3 -12 5 -3 2 -18 5 -56 14 -12 3 -28 8 -35 13 -18 11 -37 12
-37 2z"/>
<path d="M4813 4013 c-3 -10 -13 -26 -21 -35 -8 -10 -11 -18 -7 -18 4 0 0 -9
-10 -20 -10 -11 -15 -20 -11 -20 4 0 0 -7 -8 -16 -9 -8 -15 -23 -15 -32 1 -15
2 -15 6 1 2 9 9 14 15 11 6 -4 8 -2 5 3 -4 6 0 16 8 23 8 7 13 16 10 20 -3 4
2 13 10 20 8 7 12 16 9 21 -3 5 0 9 5 9 6 0 11 9 11 21 0 13 4 18 12 13 7 -4
8 -3 4 4 -10 16 -16 15 -23 -5z"/>
<path d="M1490 3999 c0 -5 -4 -8 -8 -5 -4 2 -18 -4 -31 -13 -20 -16 -21 -19
-7 -24 12 -5 15 -3 11 6 -4 6 0 4 8 -6 15 -18 16 -18 27 4 10 17 14 19 21 8 5
-8 9 -9 9 -3 0 5 -5 15 -10 20 -7 7 -6 11 4 11 8 0 15 -3 14 -6 -2 -20 3 -31
12 -26 6 4 7 11 4 17 -4 7 -2 8 4 4 7 -4 12 -2 12 3 0 6 -6 11 -12 12 -7 0
-23 2 -35 5 -13 2 -23 -1 -23 -7z m-1 -26 c-6 -7 -15 -10 -20 -7 -13 8 -3 21
15 21 12 0 13 -4 5 -14z"/>
<path d="M3494 3999 c-4 -8 -3 -9 4 -5 7 4 12 2 12 -4 0 -7 7 -10 15 -7 8 4
17 2 20 -4 4 -5 10 -7 15 -4 5 3 11 1 15 -5 9 -14 35 -13 35 2 0 6 -3 8 -6 5
-4 -3 -16 -1 -28 5 -11 7 -28 13 -36 13 -8 0 -20 4 -27 8 -6 4 -15 2 -19 -4z"/>
<path d="M1556 3971 c-17 -19 -10 -37 9 -21 8 7 12 5 12 -5 0 -8 -3 -12 -7
-10 -9 6 -6 -42 3 -51 4 -4 7 -1 8 7 7 97 3 111 -25 80z"/>
<path d="M3629 3957 c8 -9 16 -15 19 -12 3 3 11 0 19 -6 7 -6 13 -8 13 -4 0 4
7 2 15 -5 11 -9 19 -10 26 -3 6 6 4 10 -6 11 -8 1 -22 3 -30 4 -8 1 -15 6 -15
11 0 5 -6 7 -14 4 -7 -3 -20 0 -27 6 -10 10 -10 8 0 -6z"/>
<path d="M1490 3946 c-7 -9 -17 -13 -23 -9 -5 3 -20 7 -33 9 -17 1 -21 -2 -17
-14 4 -10 2 -13 -5 -8 -8 5 -10 2 -6 -8 3 -9 1 -16 -5 -16 -7 0 -9 -11 -6 -27
3 -19 -2 -34 -17 -50 -11 -12 -24 -21 -27 -18 -4 2 -7 -6 -7 -17 0 -19 1 -19
19 4 11 12 24 22 29 20 5 -1 7 2 4 7 -3 5 1 12 10 15 12 5 15 2 10 -9 -3 -9
-2 -13 4 -10 6 3 10 1 10 -5 0 -7 8 -9 19 -5 14 4 20 0 23 -20 3 -14 1 -28 -4
-31 -5 -3 -5 -11 -1 -17 4 -7 8 -45 8 -84 -1 -40 2 -73 6 -73 9 0 5 142 -4
157 -4 6 -3 14 1 17 5 3 8 15 7 28 -1 13 2 29 8 36 8 10 7 16 -4 23 -12 7 -12
9 0 9 11 0 11 4 -2 18 -15 16 -15 18 3 18 10 0 16 -4 13 -9 -6 -10 36 -57 50
-57 6 0 2 9 -8 20 -10 11 -15 20 -10 20 4 0 2 6 -4 13 -6 8 -8 17 -4 20 3 4 1
7 -7 7 -10 0 -10 3 0 15 7 8 18 15 24 14 7 0 6 -2 -1 -6 -7 -2 -13 -9 -13 -14
0 -6 6 -7 13 -3 9 6 9 4 -1 -8 -9 -11 -10 -18 -2 -23 6 -3 8 -11 5 -16 -3 -5
1 -6 10 -3 11 5 12 10 5 18 -5 7 -8 22 -6 33 3 12 -4 29 -15 39 -15 13 -19 14
-19 3 0 -11 -2 -11 -9 -1 -6 10 -10 10 -21 -2z m13 -33 c-4 -10 -8 -12 -11 -5
-2 8 -11 7 -28 -5 -23 -15 -24 -17 -8 -34 9 -10 13 -22 10 -28 -3 -5 0 -11 6
-14 7 -2 1 -4 -14 -4 -30 -1 -35 6 -17 24 13 13 3 36 -12 27 -5 -3 -7 -10 -4
-15 3 -5 0 -6 -8 -3 -7 2 -14 11 -14 18 0 8 7 12 15 8 9 -3 13 -1 9 4 -3 6 -2
16 4 24 7 13 9 13 9 0 1 -12 3 -11 11 3 6 9 14 15 19 12 5 -3 11 -1 15 5 10
16 25 1 18 -17z"/>
<path d="M3735 3919 c-5 -8 -4 -10 3 -5 7 4 12 2 12 -4 0 -7 6 -10 14 -7 8 3
17 3 21 -1 4 -4 10 -7 13 -8 4 0 21 -6 37 -13 28 -12 50 -18 68 -20 5 -1 6 -4
4 -8 -3 -5 6 -9 19 -9 13 -1 44 -11 69 -23 25 -12 55 -23 68 -25 12 -3 24 -5
27 -6 3 -2 8 -2 13 -1 4 0 7 -4 7 -9 0 -5 5 -10 11 -10 8 0 8 5 -1 15 -7 8
-16 12 -21 9 -5 -3 -9 0 -9 6 0 7 -7 10 -15 6 -8 -3 -15 -1 -15 4 0 5 -6 7
-14 4 -7 -3 -22 3 -31 13 -10 10 -21 17 -24 16 -9 -4 -74 18 -89 30 -7 5 -15
7 -18 4 -4 -3 -23 2 -44 13 -21 11 -40 16 -44 13 -3 -4 -6 -1 -6 6 0 7 -6 11
-14 8 -7 -3 -18 -1 -24 5 -6 6 -12 6 -17 -3z"/>
<path d="M4719 3856 c-1 -3 -2 -11 -3 -16 0 -6 -7 -15 -15 -19 -7 -5 -11 -13
-7 -19 3 -6 1 -14 -6 -19 -18 -11 -53 -53 -45 -53 13 0 67 63 61 71 -3 5 1 12
10 15 18 7 28 31 16 39 -6 4 -11 4 -11 1z"/>
<path d="M1504 3829 c0 -20 11 -25 20 -10 3 5 0 13 -7 19 -10 8 -13 6 -13 -9z"/>
<path d="M1568 3791 c9 -11 23 -27 31 -36 7 -9 16 -13 20 -9 3 4 0 9 -7 11 -6
3 -9 10 -6 15 4 7 2 8 -4 4 -7 -4 -12 -1 -12 7 0 8 -7 18 -16 21 -24 9 -25 7
-6 -13z"/>
<path d="M1315 3771 c-3 -6 -3 -11 2 -11 4 0 1 -5 -7 -10 -10 -7 -11 -10 -2
-10 7 0 15 7 19 15 7 19 -2 31 -12 16z"/>
<path d="M4140 3775 c0 -2 10 -10 23 -16 20 -11 21 -11 8 4 -13 16 -31 23 -31
12z"/>
<path d="M4190 3749 c0 -7 3 -9 7 -6 3 4 15 0 25 -10 10 -9 18 -13 18 -8 0 4
11 0 25 -9 14 -9 25 -12 25 -7 0 5 -19 17 -42 27 -24 10 -46 20 -50 22 -5 2
-8 -2 -8 -9z"/>
<path d="M1275 3730 c-3 -5 1 -10 10 -10 9 0 13 5 10 10 -3 6 -8 10 -10 10 -2
0 -7 -4 -10 -10z"/>
<path d="M1630 3733 c0 -5 24 -31 53 -57 28 -26 62 -57 75 -69 12 -12 27 -22
32 -22 5 0 16 -9 24 -20 9 -11 16 -16 16 -11 0 6 6 2 13 -9 11 -14 16 -15 22
-5 5 8 4 11 -2 7 -6 -4 -14 0 -17 9 -4 9 -9 14 -13 11 -3 -4 -14 5 -25 18 -10
14 -25 24 -31 22 -7 -1 -11 3 -10 9 1 7 -11 17 -27 24 -16 7 -27 17 -23 23 3
5 1 7 -5 3 -6 -3 -13 3 -17 14 -3 11 -10 19 -15 17 -4 -1 -17 9 -29 22 -12 13
-21 20 -21 14z"/>
<path d="M4300 3711 c0 -6 4 -13 10 -16 6 -3 7 1 4 9 -7 18 -14 21 -14 7z"/>
<path d="M4499 3720 c0 -3 -2 -13 -4 -22 -2 -10 1 -18 5 -18 15 0 19 15 9 30
-5 8 -9 13 -10 10z"/>
<path d="M4521 3710 c1 -8 -1 -23 -6 -33 -6 -14 -10 -15 -21 -6 -8 6 -11 15
-8 20 3 5 -1 9 -10 9 -8 0 -13 -7 -11 -17 1 -10 9 -16 16 -15 8 2 10 0 6 -4
-11 -11 -38 -14 -32 -4 3 5 1 11 -4 14 -5 3 -11 -1 -15 -9 -4 -12 -13 -10 -48
10 -48 27 -58 30 -58 14 0 -5 5 -7 10 -4 6 3 10 1 10 -6 0 -7 3 -10 6 -7 3 4
30 -7 61 -23 62 -33 67 -34 58 -16 -4 6 0 4 8 -5 8 -10 18 -14 22 -10 4 4 0
-5 -10 -20 -16 -26 -16 -28 -1 -34 15 -6 15 -8 1 -23 -8 -9 -29 -34 -45 -56
-16 -22 -40 -50 -52 -62 -12 -13 -18 -23 -13 -23 5 0 0 -7 -11 -16 -18 -14
-18 -15 4 -4 13 7 21 14 19 17 -3 2 7 17 23 31 15 15 29 32 31 37 2 6 7 9 10
8 4 -1 10 8 13 21 6 26 36 31 37 7 0 -12 2 -11 8 3 6 17 8 17 14 3 6 -17 67
-21 67 -5 0 5 4 7 9 4 5 -3 17 5 26 18 11 14 25 22 34 19 11 -3 10 0 -3 11
-11 9 -16 16 -11 16 5 0 4 5 -2 11 -6 6 -9 18 -6 25 3 8 1 14 -5 14 -11 0 -11
-18 1 -37 5 -8 4 -13 -2 -13 -6 0 -11 5 -11 11 0 5 -4 8 -8 5 -12 -7 -35 10
-38 28 -3 21 32 41 42 24 4 -7 3 -8 -4 -4 -7 4 -12 1 -12 -8 0 -8 6 -18 13
-22 6 -4 9 -4 5 1 -4 4 -3 14 3 21 7 9 6 16 -4 26 -13 11 -12 17 5 41 11 15
16 27 12 27 -4 0 -13 -8 -20 -17 -7 -10 -17 -19 -23 -19 -6 -1 -16 -2 -22 -3
-8 -1 -8 -5 0 -15 9 -10 8 -16 -3 -25 -8 -7 -12 -19 -9 -27 3 -8 1 -14 -5 -14
-5 0 -9 8 -9 18 0 34 -3 43 -13 37 -5 -3 -7 -12 -3 -20 3 -8 0 -15 -7 -15 -6
0 -8 5 -5 11 4 6 0 9 -10 7 -10 -2 -20 4 -22 12 -4 13 -3 13 6 0 8 -11 11 -12
11 -2 0 7 4 10 10 7 6 -4 7 1 4 12 -3 10 -2 14 3 8 4 -5 17 -11 28 -13 17 -2
17 0 -4 11 -15 9 -20 17 -12 21 6 4 11 2 11 -4 0 -7 5 -10 11 -8 17 6 11 23
-8 23 -10 -1 -22 4 -26 10 -5 6 -7 4 -6 -5z m19 -121 c0 -5 -4 -7 -10 -4 -5 3
-10 1 -10 -4 0 -6 -4 -11 -10 -11 -5 0 -7 7 -4 15 7 17 34 21 34 4z m50 -21
c0 -4 6 -7 13 -5 6 1 11 -4 10 -10 -2 -7 1 -13 6 -13 5 0 12 6 14 13 4 9 6 9
6 -1 1 -7 -6 -15 -14 -18 -8 -4 -12 -10 -9 -15 3 -5 2 -9 -3 -8 -4 1 -10 0
-13 -1 -21 -9 -60 -5 -64 7 -3 8 -10 11 -16 8 -17 -10 -11 3 11 29 20 23 59
32 59 14z"/>
<path d="M4541 3551 c-12 -21 -6 -29 29 -36 19 -4 33 8 36 31 1 6 -3 11 -10
11 -6 0 -19 4 -28 8 -11 4 -20 0 -27 -14z m44 -4 c14 -11 15 -16 5 -22 -8 -5
-11 -4 -7 2 10 16 -18 24 -32 10 -9 -9 -11 -8 -6 6 8 21 15 21 40 4z"/>
<path d="M1254 3695 c-10 -8 -14 -15 -8 -15 6 0 17 7 24 15 16 19 9 19 -16 0z"/>
<path d="M4439 3628 c-6 -24 -3 -51 8 -59 7 -6 10 -16 6 -22 -4 -7 0 -8 11 -4
10 4 20 7 23 7 3 0 -1 7 -8 17 -16 19 -16 22 3 35 9 6 5 7 -11 3 -15 -5 -21
-3 -17 3 3 6 2 13 -4 17 -5 3 -10 5 -11 3z m28 -55 c0 -9 -4 -10 -14 -2 -7 6
-13 12 -13 14 0 1 6 2 13 2 8 0 14 -6 14 -14z"/>
<path d="M4590 3606 c0 -2 7 -7 16 -10 8 -3 12 -2 9 4 -6 10 -25 14 -25 6z"/>
<path d="M1477 3555 c-4 -8 -2 -15 3 -15 5 0 7 -9 5 -20 -2 -11 0 -20 6 -20 5
0 7 14 4 32 -7 39 -11 44 -18 23z"/>
<path d="M4690 3529 c0 -5 9 -9 20 -9 11 0 20 2 20 4 0 2 -9 6 -20 9 -11 3
-20 1 -20 -4z"/>
<path d="M1880 3515 c7 -8 19 -15 26 -15 8 0 14 -4 14 -10 0 -5 7 -10 15 -10
8 0 15 -5 15 -12 0 -6 3 -9 6 -5 4 3 12 1 20 -6 33 -30 42 -35 48 -30 5 5
-137 103 -150 103 -4 0 -1 -7 6 -15z"/>
<path d="M4736 3512 c-3 -5 12 -14 32 -21 20 -8 45 -20 55 -29 9 -8 17 -11 17
-6 0 5 5 2 10 -6 7 -12 11 -12 20 -2 5 6 7 10 3 7 -3 -3 -13 1 -22 9 -9 8 -18
15 -21 15 -19 3 -70 27 -70 33 0 11 -17 10 -24 0z"/>
<path d="M1486 3483 c5 -4 11 -18 12 -30 0 -13 2 -34 3 -48 1 -13 6 -22 11
-19 5 3 6 15 2 27 -4 12 -8 33 -8 46 -1 13 -8 26 -16 28 -9 3 -11 1 -4 -4z"/>
<path d="M2045 3406 c11 -8 23 -12 27 -10 5 3 8 0 8 -6 0 -6 4 -9 9 -5 6 3 14
-3 20 -12 6 -10 11 -14 11 -9 0 5 9 1 19 -8 11 -10 26 -18 34 -20 8 -1 21 -7
28 -13 32 -25 58 -33 65 -21 4 7 3 8 -4 4 -7 -4 -12 -2 -12 4 0 6 -4 9 -9 6
-4 -3 -19 3 -31 14 -12 11 -27 17 -31 14 -5 -3 -9 0 -9 6 0 6 -4 8 -10 5 -5
-3 -10 -2 -10 2 0 10 -70 49 -82 46 -4 -2 -8 2 -8 7 0 6 -8 10 -17 10 -15 0
-14 -2 2 -14z"/>
<path d="M1512 3347 c1 -16 8 -27 16 -27 12 0 12 2 1 17 -8 9 -12 18 -11 20 2
3 1 7 -2 11 -3 3 -5 -7 -4 -21z"/>
<path d="M4305 3313 c-22 -26 -39 -50 -38 -54 2 -4 -6 -11 -17 -14 -11 -4 -18
-10 -15 -15 3 -4 -2 -10 -10 -14 -8 -3 -15 -11 -15 -18 0 -12 69 53 73 69 1 4
19 25 39 47 21 21 38 40 38 42 0 13 -20 -3 -55 -43z"/>
<path d="M1527 3295 c6 -11 8 -26 6 -32 -3 -7 0 -13 6 -13 12 0 5 40 -10 54
-9 8 -9 6 -2 -9z"/>
<path d="M2282 3291 c-11 -7 -11 -9 0 -14 9 -3 15 1 15 9 0 8 -1 14 -1 14 -1
0 -7 -4 -14 -9z"/>
<path d="M2310 3270 c0 -5 5 -11 10 -11 6 -1 13 -3 18 -4 4 -2 17 -6 30 -10
12 -4 22 -12 22 -18 0 -6 3 -8 6 -4 4 3 23 -2 44 -13 21 -11 40 -16 44 -13 3
4 6 1 6 -6 0 -7 4 -10 9 -6 5 3 12 1 16 -5 4 -6 11 -8 16 -5 5 4 9 1 9 -5 0
-6 5 -8 10 -5 6 4 17 1 25 -5 10 -8 15 -9 15 -2 0 10 -23 21 -54 26 -6 1 -20
7 -31 13 -11 6 -22 11 -25 10 -3 0 -34 13 -70 29 -36 16 -68 28 -72 26 -5 -1
-8 3 -8 8 0 6 -4 10 -10 10 -5 0 -10 -4 -10 -10z"/>
<path d="M1545 3231 c-3 -5 -1 -12 5 -16 5 -3 10 1 10 9 0 18 -6 21 -15 7z"/>
<path d="M1554 3185 c1 -8 5 -18 9 -21 4 -4 7 -16 7 -26 0 -10 4 -18 10 -18 6
0 6 10 -1 28 -6 15 -10 28 -10 30 4 11 -1 22 -8 22 -5 0 -8 -7 -7 -15z"/>
<path d="M4190 3180 c0 -5 5 -10 11 -10 5 0 7 5 4 10 -3 6 -8 10 -11 10 -2 0
-4 -4 -4 -10z"/>
<path d="M4157 3149 c-19 -22 -9 -25 18 -6 10 8 14 17 8 20 -5 3 -17 -3 -26
-14z"/>
<path d="M2606 3151 c-4 -6 -2 -11 3 -11 21 0 26 -2 39 -12 6 -6 12 -7 12 -3
0 4 6 2 14 -4 10 -8 16 -9 21 -1 5 8 -18 15 -28 8 -2 -2 -11 3 -20 11 -10 7
-17 10 -17 5 0 -5 -4 -3 -9 5 -6 9 -11 10 -15 2z"/>
<path d="M2710 3108 c0 -6 3 -9 6 -5 4 3 19 0 35 -8 15 -8 37 -15 48 -15 10 0
22 -6 24 -12 4 -10 6 -10 6 -1 1 15 -8 21 -44 27 -15 3 -33 10 -39 16 -14 14
-36 13 -36 -2z"/>
<path d="M4130 3109 c0 -6 -7 -9 -15 -5 -8 3 -14 2 -14 -2 3 -21 -2 -32 -13
-26 -7 5 -8 3 -3 -6 6 -10 11 -10 20 3 7 9 14 15 16 12 3 -2 10 5 17 15 7 12
8 20 2 20 -5 0 -10 -5 -10 -11z"/>
<path d="M1584 3098 c-4 -6 -2 -14 4 -16 7 -2 9 -9 6 -14 -4 -7 -2 -8 5 -4 8
6 9 12 2 20 -6 7 -8 16 -4 19 3 4 4 7 0 7 -3 0 -9 -5 -13 -12z"/>
<path d="M1255 3078 c16 -13 33 -23 38 -23 4 0 12 -7 17 -15 5 -8 10 -10 10
-5 0 6 5 3 10 -5 5 -8 10 -10 10 -4 0 12 -48 48 -63 49 -4 0 -11 5 -15 10 -4
6 -14 11 -22 13 -8 1 -2 -8 15 -20z"/>
<path d="M2846 3066 c3 -8 14 -14 24 -13 10 1 16 5 14 9 -3 5 -10 6 -15 3 -5
-4 -9 -1 -9 4 0 6 -4 11 -10 11 -5 0 -7 -6 -4 -14z"/>
<path d="M1603 3053 c-9 -3 -7 -11 7 -25 11 -12 17 -25 14 -29 -3 -5 2 -22 11
-38 14 -28 14 -30 -5 -36 -11 -4 -20 -10 -20 -15 0 -5 -9 -8 -20 -7 -11 1 -20
5 -20 9 0 4 -8 8 -17 8 -22 0 -3 -20 23 -24 15 -2 19 -11 17 -40 -2 -35 9 -47
23 -24 4 6 3 8 -2 5 -5 -3 -10 3 -10 13 0 10 4 16 8 14 4 -3 7 5 5 18 -1 18 2
22 18 20 16 -2 17 -1 5 7 -9 7 -10 11 -3 11 6 0 19 -10 27 -22 13 -18 18 -19
30 -8 9 7 13 17 10 22 -4 6 -9 6 -14 -2 -5 -9 -9 -9 -14 -1 -4 6 -2 11 5 11 7
0 4 7 -7 15 -16 13 -16 14 -1 9 9 -3 17 -2 17 4 0 5 -10 9 -22 8 -14 -1 -22 4
-20 12 1 6 -3 12 -9 12 -5 0 -7 4 -4 10 3 5 -1 20 -10 33 -8 13 -12 27 -8 30
7 8 4 8 -14 0z"/>
<path d="M2905 3050 c3 -5 8 -10 11 -10 2 0 4 5 4 10 0 6 -5 10 -11 10 -5 0
-7 -4 -4 -10z"/>
<path d="M4061 3053 c3 -21 -2 -33 -13 -27 -7 5 -8 3 -3 -6 6 -10 11 -9 22 5
16 22 17 35 3 35 -5 0 -9 -3 -9 -7z"/>
<path d="M2930 3041 c0 -4 6 -8 13 -9 14 -1 51 -10 55 -12 1 -2 11 -3 21 -4
11 0 23 -4 27 -8 11 -11 24 -10 24 3 0 5 -4 8 -9 4 -5 -3 -12 -1 -16 5 -4 6
-10 8 -15 5 -5 -3 -11 -1 -15 4 -3 5 -14 8 -25 6 -11 -2 -20 -1 -20 3 0 4 -9
8 -20 9 -11 1 -20 -2 -20 -6z"/>
<path d="M1350 3023 c0 -15 129 -82 136 -71 4 6 2 8 -3 5 -6 -4 -16 0 -23 8
-7 8 -18 15 -25 15 -8 0 -15 3 -17 8 -5 11 -68 44 -68 35z"/>
<path d="M3084 3005 c1 -8 6 -18 11 -22 4 -4 5 -2 1 5 -8 13 6 17 18 5 12 -12
46 -13 46 -1 0 6 -3 8 -7 5 -3 -4 -12 -2 -20 4 -7 6 -13 8 -13 5 0 -4 -9 -2
-19 4 -15 7 -19 7 -17 -5z"/>
<path d="M3906 3011 c-4 -5 -18 -8 -31 -5 -17 3 -27 -1 -31 -11 -3 -8 -11 -12
-17 -8 -6 3 -7 1 -3 -5 4 -7 1 -12 -7 -12 -19 0 -51 -81 -35 -91 6 -4 19 -6
28 -4 21 4 45 -31 28 -41 -6 -4 -8 -3 -4 4 7 12 -4 21 -33 27 -12 2 -18 -2
-17 -13 0 -9 -5 -17 -11 -18 -7 -1 -16 -3 -20 -4 -5 -1 -11 -2 -15 -1 -5 0 -8
-3 -8 -9 0 -5 -3 -9 -7 -8 -16 3 -63 -14 -63 -23 0 -6 8 -6 19 0 10 6 21 7 25
4 3 -3 6 0 6 7 0 7 3 10 6 7 4 -3 16 -1 28 5 11 7 33 12 47 13 25 1 26 -1 17
-27 -6 -15 -14 -25 -19 -22 -5 3 -16 -2 -25 -10 -8 -9 -12 -16 -7 -16 4 0 -7
-9 -24 -20 -36 -22 -41 -30 -17 -30 8 0 13 4 10 8 -2 4 9 14 24 21 16 7 28 18
27 24 -1 6 3 11 8 12 16 1 54 38 49 47 -3 5 -2 7 3 6 4 -1 21 6 36 16 15 10
30 16 34 12 3 -3 2 -6 -4 -6 -6 0 -9 -10 -8 -22 1 -13 4 -23 5 -23 5 0 11 -52
13 -117 2 -66 9 -84 20 -53 4 8 2 17 -4 21 -7 4 -6 10 1 19 6 8 7 16 2 19 -8
5 -8 34 1 86 1 8 6 21 11 29 7 10 4 12 -13 6 -13 -4 -21 -2 -21 5 0 6 5 8 12
4 7 -5 9 -2 5 9 -3 8 0 18 8 21 8 3 12 16 11 30 -2 16 6 37 21 54 14 16 21 20
17 9 -4 -12 -2 -17 7 -15 8 2 13 -3 11 -10 -1 -8 2 -11 7 -8 5 4 13 1 17 -6 4
-7 4 -10 -1 -6 -4 4 -14 0 -23 -9 -20 -19 -24 -53 -5 -46 7 3 11 9 8 13 -3 4
2 13 10 20 10 9 15 9 15 1 0 -6 -5 -11 -11 -11 -8 0 -7 -6 2 -17 8 -9 9 -14 3
-10 -7 4 -15 0 -18 -9 -4 -10 -2 -13 6 -8 7 4 8 3 4 -5 -4 -6 -12 -9 -17 -5
-5 3 -7 10 -4 15 3 5 -1 6 -10 3 -11 -5 -13 -10 -5 -19 7 -9 5 -16 -7 -26 -11
-9 -14 -10 -9 -1 4 6 5 12 2 12 -3 0 -10 -8 -15 -18 -8 -14 -6 -19 5 -19 7 0
14 4 14 9 0 4 3 7 8 6 4 -2 8 1 9 5 1 4 12 16 23 25 18 14 25 29 29 63 1 3 30
5 66 4 35 -1 62 1 60 5 -3 4 -28 7 -56 6 -60 -3 -88 15 -67 43 11 14 11 14 -3
4 -16 -13 -29 -8 -29 9 0 5 5 6 11 3 6 -4 5 1 -2 13 -14 23 -31 23 -57 -1 -10
-9 -21 -14 -25 -11 -3 3 -13 -6 -23 -20 -9 -15 -19 -24 -22 -21 -3 2 -12 -1
-20 -8 -10 -8 -13 -8 -9 -1 5 8 -5 11 -31 9 -27 -1 -39 2 -39 11 0 7 5 10 10
7 6 -4 8 1 4 11 -4 10 -3 15 3 11 6 -3 7 1 4 10 -5 13 -1 15 20 11 17 -3 24
-1 20 6 -5 7 -2 8 6 3 9 -6 11 -4 6 6 -4 8 1 4 12 -8 25 -28 27 -28 29 -3 1
11 -2 18 -6 16 -4 -3 -13 -1 -20 3 -9 6 -10 11 -2 15 6 4 11 1 11 -6 0 -9 3
-9 10 2 9 13 10 13 10 0 0 -13 1 -13 11 0 8 12 9 9 5 -10 -3 -14 -3 -19 0 -12
5 10 10 9 21 -5 13 -17 13 -16 4 4 -15 30 -14 37 4 19 18 -18 53 -13 74 10 15
15 14 15 -9 3 -30 -16 -43 -18 -51 -6 -3 5 -12 9 -20 10 -8 2 -19 6 -26 10 -6
4 -14 3 -17 -2z m-36 -14 c0 -2 -10 -12 -21 -23 -22 -19 -22 -19 -8 4 12 19
29 30 29 19z m57 -127 c-1 -21 -10 -18 -13 5 -1 8 2 15 6 15 5 0 8 -9 7 -20z
m-66 -7 c13 -16 12 -17 -3 -4 -17 13 -22 21 -14 21 2 0 10 -8 17 -17z"/>
<path d="M3176 2978 c7 -11 34 -10 34 1 0 6 -9 9 -19 8 -11 0 -17 -5 -15 -9z"/>
<path d="M3220 2967 c0 -5 9 -7 20 -4 11 3 23 1 26 -4 7 -12 24 -11 24 1 0 6
-3 9 -7 9 -5 -1 -10 0 -13 1 -18 7 -50 5 -50 -3z"/>
<path d="M3308 2958 c12 -16 35 -18 48 -6 3 4 -2 5 -13 4 -10 -2 -25 2 -33 8
-13 9 -13 9 -2 -6z"/>
<path d="M1697 2946 c-3 -8 1 -20 9 -27 13 -10 12 -14 -2 -30 -16 -17 -15 -18
5 -14 11 2 21 1 21 -3 0 -4 10 -8 23 -9 22 -2 22 -2 -2 11 l-24 14 24 12 c21
12 23 12 11 -2 -10 -13 -10 -17 0 -20 6 -2 13 -16 13 -31 2 -24 0 -25 -19 -14
-12 6 -25 10 -29 9 -5 -1 -6 2 -2 8 3 5 1 11 -4 11 -34 4 -72 20 -67 28 3 4
-4 7 -14 7 -14 0 -17 -7 -15 -33 3 -38 10 -50 20 -34 3 6 1 11 -4 11 -6 0 -11
5 -11 12 0 6 3 8 7 5 3 -4 12 -2 18 3 9 8 12 5 11 -11 0 -12 5 -24 12 -27 7
-2 11 2 10 8 -2 7 4 15 12 17 12 4 12 3 2 -5 -18 -12 -16 -22 11 -51 12 -13
16 -21 8 -16 -10 6 -12 2 -6 -16 3 -13 3 -19 -2 -14 -10 13 -43 18 -43 7 0 -4
5 -13 12 -20 9 -9 9 -12 0 -12 -7 0 -12 5 -12 10 0 6 -3 9 -7 9 -22 -4 -35 3
-30 15 3 7 1 18 -5 24 -8 8 -7 13 5 18 25 9 21 22 -5 19 -37 -4 -38 -4 -38
-16 0 -8 5 -7 15 1 13 11 14 10 9 -4 -3 -9 -11 -16 -18 -16 -6 0 -3 -5 7 -11
9 -6 15 -14 12 -19 -6 -10 62 -43 75 -35 6 4 8 11 5 16 -4 5 -2 9 4 9 5 0 12
-6 14 -12 4 -10 6 -10 6 -1 1 7 7 10 15 7 20 -8 30 14 16 31 -10 12 -9 15 4
15 9 0 16 5 16 11 0 5 -5 7 -12 3 -7 -4 -8 -3 -4 4 4 6 13 9 20 6 10 -4 14 6
14 35 0 23 -4 41 -10 41 -5 0 -7 7 -4 16 4 9 -5 24 -22 39 -31 28 -48 31 -55
11z m49 -18 c10 -13 15 -20 10 -16 -5 4 -16 -1 -25 -10 -9 -10 -12 -12 -7 -5
6 9 3 18 -10 28 -19 15 -19 15 0 8 13 -4 17 -3 12 5 -12 20 0 13 20 -10z m-3
-124 c-7 -19 -10 -18 -16 5 -3 13 -1 18 9 14 7 -2 10 -11 7 -19z"/>
<path d="M3870 2952 c0 -8 -9 -11 -25 -8 -15 3 -23 1 -19 -5 3 -5 1 -15 -5
-22 -7 -10 -5 -13 10 -14 10 -1 19 3 19 8 0 6 -6 7 -12 3 -7 -4 -9 -3 -5 1 10
12 39 16 32 5 -3 -5 0 -12 6 -16 8 -4 9 -3 5 4 -4 7 -2 12 3 12 6 0 11 -5 11
-11 0 -7 9 0 21 15 11 14 26 23 32 19 7 -3 8 -2 4 2 -4 5 -15 10 -23 11 -9 1
-13 0 -10 -3 3 -4 1 -13 -6 -20 -10 -12 -14 -11 -24 9 -8 13 -13 17 -14 10z"/>
<path d="M1494 2938 c-4 -7 -3 -8 4 -4 7 4 12 2 12 -3 0 -6 5 -11 10 -11 15 0
12 17 -5 23 -8 4 -17 1 -21 -5z"/>
<path d="M3364 2938 c-3 -4 5 -5 17 -3 30 6 36 14 9 12 -12 -1 -24 -5 -26 -9z"/>
<path d="M3420 2932 c0 -9 45 -10 53 -2 3 3 -8 6 -24 7 -16 1 -29 -1 -29 -5z"/>
<path d="M3486 2921 c-3 -4 4 -7 14 -6 27 2 33 10 10 12 -11 1 -22 -2 -24 -6z"/>
<path d="M3548 2913 c6 -3 9 -10 5 -16 -5 -9 -3 -9 8 -1 14 11 30 11 97 0 17
-3 32 -1 32 3 0 5 -10 7 -22 7 -13 -1 -27 0 -33 3 -5 3 -30 6 -55 7 -25 0 -39
-1 -32 -3z"/>
<path d="M3962 2903 c-9 -9 -10 -13 -1 -13 8 0 8 -4 -1 -15 -7 -8 -9 -15 -5
-15 4 0 2 -7 -5 -15 -10 -12 -10 -19 -2 -27 9 -9 8 -16 -1 -27 -10 -14 -10
-14 4 -4 9 7 20 9 25 5 4 -4 3 0 -3 8 -7 10 -8 21 -3 30 5 8 6 18 3 22 -2 5 1
16 8 24 28 33 9 58 -19 27z m1 -68 c-3 -9 -8 -14 -10 -11 -3 3 -2 9 2 15 9 16
15 13 8 -4z"/>
<path d="M4705 2909 c-3 -3 -21 -5 -40 -4 -20 1 -38 -2 -40 -5 -3 -4 -16 -6
-30 -5 -14 2 -25 -1 -25 -5 0 -5 12 -7 28 -6 15 2 27 5 27 6 0 1 23 3 50 5 28
1 51 4 53 5 1 1 6 3 11 4 22 3 18 12 -5 12 -14 0 -27 -3 -29 -7z"/>
<path d="M4766 2903 c-6 -14 -5 -15 5 -6 7 7 10 15 7 18 -3 3 -9 -2 -12 -12z"/>
<path d="M3706 2890 c9 -8 53 -7 48 2 -3 4 -16 7 -29 6 -13 -1 -22 -5 -19 -8z"/>
<path d="M4430 2881 c0 -4 24 -6 54 -6 30 0 53 2 50 4 -7 8 -104 9 -104 2z"/>
<path d="M4180 2869 c0 -4 23 -7 50 -6 28 0 50 3 50 6 0 4 -22 7 -50 7 -27 0
-50 -3 -50 -7z"/>
<path d="M4290 2869 c0 -4 14 -6 30 -5 17 0 30 4 30 7 0 4 -13 6 -30 5 -16 0
-30 -4 -30 -7z"/>
<path d="M4360 2871 c0 -5 12 -7 26 -5 37 4 39 11 4 12 -16 0 -30 -3 -30 -7z"/>
<path d="M1747 2849 c7 -7 15 -10 18 -7 3 3 -2 9 -12 12 -14 6 -15 5 -6 -5z"/>
<path d="M1658 2820 c13 -15 17 -34 4 -26 -4 2 -14 1 -22 -5 -12 -7 -12 -9 -1
-9 7 0 11 -6 8 -14 -9 -24 5 -27 21 -5 10 15 17 17 22 9 5 -8 9 -7 13 4 4 10
-5 23 -26 37 -18 12 -26 16 -19 9z m38 -32 c4 -7 4 -10 -1 -6 -4 4 -14 3 -21
-3 -8 -7 -14 -6 -20 2 -4 7 -3 9 4 5 6 -3 13 -2 17 4 8 13 12 13 21 -2z"/>
<path d="M3852 2807 c-23 -24 -30 -43 -12 -32 6 3 10 0 10 -7 1 -7 7 -2 14 11
8 15 16 20 20 12 4 -6 2 -11 -3 -11 -6 0 -11 -7 -11 -16 0 -8 4 -13 9 -10 5 4
11 0 14 -6 3 -7 4 -1 3 14 -2 15 -8 33 -15 41 -9 12 -9 16 1 20 7 3 8 6 2 6
-6 1 -20 -9 -32 -22z m11 -12 c-3 -9 -8 -14 -10 -11 -3 3 -2 9 2 15 9 16 15
13 8 -4z"/>
<path d="M1803 2805 c0 -7 3 -14 6 -13 3 0 8 -1 11 -2 10 -3 45 -11 58 -12 6
-1 12 -6 12 -11 0 -6 3 -7 7 -4 3 4 17 0 30 -8 13 -9 28 -13 33 -10 5 3 11 1
15 -5 4 -6 11 -8 16 -4 5 3 17 0 25 -7 10 -8 18 -9 25 -2 10 10 6 11 -41 15
-11 1 -20 6 -20 11 0 5 -6 7 -12 4 -7 -2 -26 2 -41 10 -26 13 -42 18 -83 27
-7 1 -18 7 -26 14 -12 9 -15 9 -15 -3z"/>
<path d="M3604 2773 c-10 -7 -13 -13 -7 -13 7 0 14 4 18 10 3 5 12 7 20 3 8
-3 15 -1 15 4 0 14 -24 12 -46 -4z"/>
<path d="M3556 2762 c-2 -4 -17 -8 -33 -7 -15 0 -31 -3 -34 -7 -5 -8 -40 -19
-66 -20 -7 -1 -13 -7 -13 -15 0 -11 5 -10 25 3 14 9 25 14 25 11 0 -3 15 0 33
7 17 7 42 12 54 11 12 -1 24 4 27 11 6 15 -9 20 -18 6z"/>
<path d="M2053 2717 c-3 -6 -1 -7 5 -3 5 3 12 1 14 -6 3 -8 6 -7 10 3 7 17
-19 22 -29 6z"/>
<path d="M1762 2700 c7 -11 16 -20 21 -20 4 0 6 -4 3 -9 -3 -4 3 -16 14 -26
11 -10 17 -22 13 -28 -3 -6 -1 -7 5 -3 13 8 -5 46 -21 46 -4 0 -6 4 -3 9 3 5
-1 14 -9 21 -8 7 -12 16 -9 21 3 5 -2 9 -10 9 -14 0 -14 -3 -4 -20z"/>
<path d="M2094 2708 c-5 -8 -2 -9 9 -5 9 3 19 2 22 -3 6 -9 31 -8 41 3 4 3 -3
5 -15 2 -11 -2 -21 0 -21 6 0 13 -27 11 -36 -3z"/>
<path d="M3360 2711 c-8 -6 -18 -7 -22 -5 -4 3 -8 1 -8 -5 0 -10 -19 -9 -38 2
-7 5 -14 2 -18 -7 -3 -8 -14 -13 -25 -11 -10 2 -21 0 -23 -4 -3 -4 6 -7 20 -7
14 1 29 8 34 16 7 10 10 11 10 3 0 -7 8 -11 18 -9 43 8 72 19 72 27 0 11 -1
11 -20 0z"/>
<path d="M2176 2692 c-3 -5 4 -10 17 -11 46 -2 67 -6 67 -12 0 -4 8 -6 18 -4
9 1 27 -1 39 -6 16 -6 21 -5 17 5 -3 7 -17 13 -32 14 -30 1 -67 7 -98 17 -12
4 -24 2 -28 -3z"/>
<path d="M3666 2675 c-10 -13 -22 -22 -27 -19 -5 3 -9 -2 -9 -11 0 -19 18 -11
38 17 7 10 18 16 23 13 5 -3 6 1 3 9 -8 20 -6 21 -28 -9z"/>
<path d="M3195 2680 c-4 -6 -11 -8 -16 -5 -5 4 -9 2 -9 -4 0 -5 8 -9 18 -8 10
0 19 7 19 14 0 16 -4 16 -12 3z"/>
<path d="M3146 2672 c-3 -5 -19 -8 -36 -7 -17 1 -32 -1 -35 -4 -2 -4 -18 -6
-34 -5 -17 1 -31 -1 -31 -5 0 -4 19 -7 43 -5 23 1 42 3 42 4 0 1 12 3 28 4 29
3 44 12 35 22 -3 3 -9 1 -12 -4z"/>
<path d="M2350 2662 c0 -4 10 -8 23 -9 12 0 41 -3 65 -7 23 -4 42 -3 42 1 0 4
-12 8 -27 9 -16 0 -45 4 -65 7 -21 4 -38 3 -38 -1z"/>
<path d="M2496 2651 c-9 -14 2 -17 69 -16 33 0 64 -4 68 -10 5 -6 7 -4 5 4 -3
10 -21 15 -59 16 -30 0 -60 4 -66 8 -6 4 -14 3 -17 -2z"/>
<path d="M2986 2653 c-4 -5 -31 -8 -59 -9 -90 -2 -107 -4 -107 -11 0 -5 11 -8
25 -8 14 0 25 3 25 6 0 3 29 5 63 4 47 -1 64 2 64 12 0 15 -1 16 -11 6z"/>
<path d="M2681 2643 c-1 -7 -8 -10 -16 -7 -8 4 -15 2 -15 -3 0 -5 15 -9 34 -9
19 0 32 4 30 8 -3 5 -9 6 -14 3 -4 -3 -11 1 -13 7 -4 10 -6 10 -6 1z"/>
<path d="M2725 2637 c7 -16 45 -20 45 -5 0 6 -3 8 -6 5 -4 -3 -15 -2 -25 4
-14 7 -17 6 -14 -4z"/>
<path d="M2785 2639 c-4 -5 -4 -13 -1 -16 3 -4 6 0 6 8 0 11 2 11 10 -1 6 -9
10 -10 10 -3 0 17 -17 25 -25 12z"/>
<path d="M3596 2614 c-9 -8 -16 -20 -16 -25 0 -5 -3 -8 -7 -7 -19 4 -41 -15
-36 -30 6 -13 7 -13 13 4 4 10 12 19 18 19 9 0 52 42 52 52 0 7 -9 2 -24 -13z"/>
<path d="M1825 2600 c-3 -6 1 -13 9 -16 9 -3 13 -11 9 -17 -3 -6 -1 -7 5 -3 9
5 9 13 2 27 -12 22 -16 23 -25 9z"/>
<path d="M3913 2585 c0 -8 4 -15 9 -15 4 0 8 7 8 15 0 8 -4 15 -8 15 -5 0 -9
-7 -9 -15z"/>
<path d="M1855 2550 c-6 -9 1 -14 18 -11 4 0 7 -5 7 -13 0 -8 8 -22 18 -32 9
-10 17 -20 17 -23 0 -4 9 -19 21 -35 16 -22 23 -26 29 -16 5 9 4 11 -3 6 -7
-4 -12 -1 -12 9 0 8 -7 18 -15 21 -8 4 -13 10 -10 14 2 4 -4 15 -15 25 -11 10
-20 24 -20 30 0 19 -27 38 -35 25z"/>
<path d="M3506 2535 c-3 -8 -9 -14 -13 -13 -14 5 -55 -30 -44 -37 6 -3 11 -1
11 5 0 6 5 8 10 5 6 -4 10 -3 9 2 -3 18 2 27 9 17 5 -8 13 -4 25 12 10 13 14
24 9 24 -6 0 -12 -7 -16 -15z"/>
<path d="M3916 2525 c4 -8 8 -15 10 -15 2 0 4 7 4 15 0 8 -4 15 -10 15 -5 0
-7 -7 -4 -15z"/>
<path d="M3396 2457 c-20 -16 -24 -24 -13 -24 9 0 14 4 11 8 -3 5 7 11 21 15
14 3 25 10 25 15 0 15 -13 10 -44 -14z"/>
<path d="M3914 2440 c0 -22 3 -40 6 -40 4 0 6 18 6 40 0 22 -3 40 -6 40 -4 0
-6 -18 -6 -40z"/>
<path d="M3350 2420 c0 -6 -12 -15 -26 -21 -15 -5 -24 -13 -20 -16 4 -4 -4
-13 -16 -20 -13 -7 -18 -12 -11 -13 18 0 94 68 83 75 -5 3 -10 1 -10 -5z"/>
<path d="M1966 2401 c-4 -5 3 -15 15 -21 11 -7 18 -14 15 -17 -2 -3 6 -15 19
-28 14 -12 21 -26 18 -31 -4 -5 -1 -3 7 4 12 10 11 14 -8 28 -12 8 -22 20 -22
25 0 17 -37 51 -44 40z"/>
<path d="M3909 2388 c-1 -2 -3 -30 -5 -63 -6 -79 -11 -130 -14 -130 -1 0 -4
-11 -6 -25 -2 -14 -6 -38 -9 -55 -3 -16 -6 -41 -7 -55 -2 -14 -7 -29 -13 -33
-6 -5 -4 -7 5 -5 8 3 15 15 17 29 2 13 5 40 8 59 3 19 7 46 9 60 2 14 5 25 6
25 3 0 11 77 13 130 1 28 6 53 12 57 6 5 5 8 -2 8 -7 0 -14 -1 -14 -2z"/>
<path d="M3250 2341 c0 -6 -6 -11 -13 -11 -17 0 -53 -38 -44 -46 4 -4 9 1 13
10 3 9 11 13 18 9 6 -3 8 -2 3 2 -4 5 5 14 20 20 18 7 23 14 15 19 -7 4 -12 2
-12 -3z"/>
<path d="M2061 2283 c51 -68 260 -273 278 -273 6 0 10 -5 9 -12 -2 -7 4 -12
12 -13 8 -1 13 -7 12 -15 -2 -8 0 -12 4 -8 4 4 13 0 20 -10 7 -9 18 -17 26
-17 7 -1 12 -7 10 -14 -1 -7 2 -10 7 -7 5 4 12 0 14 -6 4 -9 6 -10 6 -1 1 6
-29 38 -66 69 -38 32 -67 61 -66 65 2 5 -3 6 -11 3 -8 -3 -23 8 -36 25 -12 17
-28 31 -35 31 -8 0 -17 9 -20 20 -4 11 -11 18 -16 15 -5 -4 -9 -2 -9 4 0 5
-24 33 -52 63 -29 29 -52 56 -50 61 1 5 -2 6 -7 3 -5 -4 -12 3 -16 14 -3 11
-11 20 -17 20 -6 0 -5 -7 3 -17z"/>
<path d="M3167 2285 c-4 -8 -3 -16 1 -19 4 -3 9 4 9 15 2 23 -3 25 -10 4z"/>
<path d="M3122 2245 c-17 -19 -1 -19 24 0 14 11 15 14 4 14 -8 0 -21 -6 -28
-14z"/>
<path d="M3090 2220 c0 -6 -4 -9 -9 -5 -5 3 -12 -4 -16 -15 -4 -11 -11 -17
-17 -14 -7 5 -8 2 -3 -6 6 -11 10 -10 19 2 6 8 19 19 30 25 12 7 15 13 7 17
-6 4 -11 2 -11 -4z"/>
<path d="M3014 2166 c-7 -6 -28 -24 -48 -39 -20 -15 -36 -33 -36 -40 0 -7 7
-3 16 8 8 11 18 20 22 20 4 0 6 3 5 8 -2 4 2 8 7 8 6 1 14 2 18 3 14 2 43 34
35 39 -5 3 -13 0 -19 -7z"/>
<path d="M2884 2065 c-16 -14 -24 -25 -18 -25 10 0 54 37 54 45 0 9 -7 5 -36
-20z"/>
<path d="M2840 2030 c13 -8 13 -10 -1 -10 -9 0 -22 -7 -30 -16 -11 -13 -7 -13
24 2 26 12 33 20 25 26 -7 4 -17 8 -23 8 -5 0 -3 -5 5 -10z"/>
<path d="M3849 1993 c0 -10 -2 -26 -4 -35 -2 -10 1 -18 7 -18 5 0 8 6 5 13 -2
6 0 20 4 29 6 10 5 19 -1 23 -5 3 -10 -2 -11 -12z"/>
<path d="M2770 1969 c-11 -19 -10 -20 10 -9 11 6 18 15 15 21 -9 13 -13 11
-25 -12z"/>
<path d="M2731 1947 c-8 -10 -7 -14 4 -14 8 0 15 6 15 14 0 7 -2 13 -4 13 -2
0 -9 -6 -15 -13z"/>
<path d="M3825 1921 c-3 -5 0 -13 6 -17 7 -4 9 -3 5 4 -3 5 0 13 6 15 9 4 10
6 1 6 -6 1 -14 -3 -18 -8z"/>
<path d="M2700 1910 c0 -5 -4 -10 -9 -10 -16 0 -86 -68 -78 -76 4 -4 7 -2 7 4
0 7 7 12 16 12 8 0 12 5 9 10 -3 6 -2 10 4 10 5 0 16 6 23 13 7 7 24 21 38 30
19 13 21 17 7 17 -9 0 -17 -4 -17 -10z"/>
<path d="M3820 1871 c-6 -12 -8 -21 -4 -21 3 0 1 -7 -6 -15 -7 -8 -9 -15 -4
-15 4 0 3 -5 -4 -12 -15 -15 -16 -42 -2 -33 6 4 8 11 5 16 -4 5 -1 9 5 9 7 0
10 6 7 14 -3 7 0 19 6 25 6 6 7 11 3 11 -5 0 -3 7 4 15 7 9 10 18 7 21 -3 3
-10 -4 -17 -15z"/>
<path d="M3780 1756 c0 -2 7 -9 15 -16 13 -11 14 -10 9 4 -5 14 -24 23 -24 12z"/>
<path d="M3772 1735 c4 -4 -2 -25 -13 -46 -11 -22 -17 -39 -13 -39 4 0 1 -6
-5 -14 -7 -8 -8 -17 -3 -20 8 -5 14 6 20 37 1 4 8 23 16 42 11 26 12 36 3 41
-7 4 -9 4 -5 -1z"/>
<path d="M2867 1634 c3 -8 9 -12 13 -9 4 3 13 -2 20 -10 7 -8 16 -13 20 -10 5
3 16 -2 24 -11 9 -8 16 -12 16 -7 0 4 5 1 10 -7 6 -10 10 -11 10 -3 0 7 -27
26 -59 42 -39 19 -58 24 -54 15z"/>
<path d="M3724 1603 c3 -6 2 -14 -4 -18 -6 -4 -8 -11 -5 -16 4 -5 2 -9 -3 -9
-15 0 -23 -28 -10 -36 6 -4 8 -3 4 4 -3 5 -2 12 3 14 5 1 11 10 13 18 2 8 7
18 13 22 6 5 5 12 -4 20 -9 8 -11 9 -7 1z"/>
<path d="M2993 1570 c2 -8 10 -14 16 -12 6 1 11 -3 11 -10 0 -6 3 -8 7 -5 3 4
12 2 19 -4 8 -7 14 -6 20 2 4 7 3 9 -4 5 -5 -3 -12 -2 -14 3 -1 5 -12 11 -23
13 -11 1 -24 8 -28 13 -5 6 -7 4 -4 -5z"/>
<path d="M3077 1533 c-3 -5 -2 -15 4 -23 7 -12 9 -12 9 -1 0 11 3 11 15 1 8
-7 15 -9 15 -5 0 5 9 0 20 -10 11 -10 20 -15 20 -10 0 4 11 0 24 -9 16 -10 27
-12 31 -6 4 6 3 10 -2 9 -4 -1 -25 5 -45 15 -21 9 -40 15 -42 14 -2 -2 -13 5
-24 15 -11 10 -22 14 -25 10z"/>
<path d="M3684 1512 c3 -5 0 -12 -6 -15 -10 -3 -10 -8 -2 -16 9 -9 13 -7 17 8
3 12 0 24 -5 28 -6 3 -8 1 -4 -5z"/>
<path d="M4226 1465 c-16 -12 -17 -17 -7 -28 10 -10 12 -9 9 3 -2 8 2 14 9 13
6 -1 14 4 17 12 7 19 -3 19 -28 0z"/>
<path d="M3230 1455 c0 -12 6 -16 20 -12 10 3 24 -1 31 -9 6 -8 20 -14 30 -14
9 0 24 -6 31 -13 18 -19 52 -19 36 0 -6 7 -13 11 -16 9 -2 -3 -17 1 -33 10
-16 8 -29 11 -29 8 0 -4 -9 1 -20 11 -11 10 -20 15 -20 10 0 -4 -7 -2 -15 5
-12 10 -15 9 -15 -5z"/>
<path d="M3664 1462 c3 -5 1 -12 -6 -14 -8 -3 -9 -6 -1 -11 6 -4 13 0 17 8 3
8 0 17 -6 21 -6 4 -8 3 -4 -4z"/>
<path d="M3643 1423 c4 -6 0 -14 -9 -17 -8 -3 -13 -10 -10 -15 3 -5 -1 -14 -9
-21 -8 -7 -12 -16 -9 -21 10 -17 -33 -13 -81 6 -11 4 -22 9 -25 11 -3 1 -12
-2 -20 -8 -12 -8 -12 -9 2 -4 10 3 20 1 23 -5 4 -5 11 -7 16 -4 5 4 9 1 9 -5
0 -6 6 -10 13 -8 6 1 22 -3 35 -10 12 -7 22 -9 22 -5 0 4 5 1 10 -7 7 -11 8
-7 6 15 -2 17 0 32 4 35 5 3 10 12 12 20 2 8 9 20 17 26 11 9 12 12 1 19 -8 5
-11 4 -7 -2z"/>
<path d="M4169 1408 c-6 -10 -14 -16 -20 -13 -5 4 -8 1 -7 -6 2 -7 -1 -13 -7
-14 -14 -1 -69 -54 -63 -61 3 -2 16 8 30 23 13 15 29 29 35 30 6 1 25 15 42
31 22 20 27 29 16 29 -9 0 -21 -9 -26 -19z"/>
<path d="M3400 1390 c0 -5 5 -10 10 -10 6 0 10 5 10 10 0 6 -4 10 -10 10 -5 0
-10 -4 -10 -10z"/>
<path d="M3430 1381 c0 -14 29 -21 36 -9 4 7 3 8 -4 4 -7 -4 -12 -2 -12 3 0 6
-4 11 -10 11 -5 0 -10 -4 -10 -9z"/>
<path d="M3630 1310 c0 -8 11 -13 23 -9 1 0 14 -4 30 -10 17 -7 27 -7 27 -1 0
9 -29 15 -52 11 -5 0 -8 4 -8 9 0 6 -4 10 -10 10 -5 0 -10 -4 -10 -10z"/>
<path d="M4050 1311 c0 -7 -5 -9 -12 -5 -6 4 -8 3 -4 -4 3 -6 -3 -13 -14 -17
-11 -4 -18 -11 -15 -16 4 -5 18 2 33 16 14 13 23 27 19 31 -4 4 -7 2 -7 -5z"/>
<path d="M3723 1286 c0 -8 3 -15 6 -14 3 0 8 0 11 -2 3 -1 15 -3 28 -6 19 -3
21 -2 10 10 -7 8 -15 10 -17 4 -1 -5 -11 -2 -20 6 -15 14 -18 14 -18 2z"/>
<path d="M4023 1206 c0 -11 33 -16 39 -5 2 2 1 3 -1 2 -2 -1 -11 2 -21 7 -12
6 -17 5 -17 -4z"/>
</g>
</svg>
